<?xml version="1.0"?>
<svg xmlns="http://www.w3.org/2000/svg" height="512px" viewBox="0 -24 512 512" width="512px" class=""><g><path d="m512 120.667969-256-29.84375-10.667969 197.175781 10.667969 175h256zm0 0" fill="#e2e2e7" data-original="#E2E2E7" class=""/><path d="m0 120.667969v342.332031h256v-372.175781zm0 0" fill="#ececf1" data-original="#ECECF1" class=""/><path d="m55.398438 0h30v42.667969h-30zm0 0" fill="#a1a1a7" data-original="#A1A1A7" class="active-path" style="fill:#000000" data-old_color="#A1A1A7"/><path d="m148.199219 0h30v42.667969h-30zm0 0" fill="#a1a1a7" data-original="#A1A1A7" class="active-path" style="fill:#000000" data-old_color="#A1A1A7"/><g fill="#7c8388"><path d="m333.800781 0h30v42.667969h-30zm0 0" data-original="#000000" class="" style="fill:#000000"/><path d="m426.601562 0h30v42.667969h-30zm0 0" data-original="#000000" class="" style="fill:#000000"/><path d="m271 0h-15l-10.667969 21.332031 10.667969 21.332031h15zm0 0" data-original="#000000" class="" style="fill:#000000"/></g><path d="m241 0h15v42.667969h-15zm0 0" fill="#a1a1a7" data-original="#A1A1A7" class="active-path" style="fill:#000000" data-old_color="#A1A1A7"/><path d="m175 271h-94v-94h94zm-64-30h34v-34h-34zm0 0" fill="#0ac5cc" data-original="#0AC5CC" class="" style="fill:#04B4BC" data-old_color="#0AC5CC"/><path d="m431 271h-94v-94h94zm-64-30h34v-34h-34zm0 0" fill="#04b4bc" data-original="#04B4BC" class="" style="fill:#04B4BC"/><path d="m81 305h94v30h-94zm0 0" fill="#575f64" data-original="#575F64" class="" style="fill:#32393F" data-old_color="#575F64"/><path d="m81 369h94v30h-94zm0 0" fill="#fc7419" data-original="#FC7419" class="" style="fill:#FD4B00" data-old_color="#FC7419"/><path d="m337 305h94v30h-94zm0 0" fill="#32393f" data-original="#32393F" class="" style="fill:#32393F"/><path d="m337 369h94v30h-94zm0 0" fill="#fd4b00" data-original="#FD4B00" class="" style="fill:#FD4B00"/><path d="m512 37.492188h-256l-21.332031 37.175781 21.332031 47h256zm0 0" fill="#fd4b00" data-original="#FD4B00" class="" style="fill:#FD4B00"/><path d="m0 37.492188h256v84.175781h-256zm0 0" fill="#fc7419" data-original="#FC7419" class="" style="fill:#FD4B00" data-old_color="#FC7419"/><path d="m273 207v34h-17l-10.667969 15 10.667969 15h47v-94h-47l-10.667969 15 10.667969 15zm0 0" fill="#04b4bc" data-original="#04B4BC" class="" style="fill:#04B4BC"/><path d="m209 271h47v-30h-17v-34h17v-30h-47zm0 0" fill="#0ac5cc" data-original="#0AC5CC" class="" style="fill:#04B4BC" data-old_color="#0AC5CC"/><path d="m303 335v-30h-47l-10.667969 15 10.667969 15zm0 0" fill="#32393f" data-original="#32393F" class="" style="fill:#32393F"/><path d="m209 305h47v30h-47zm0 0" fill="#575f64" data-original="#575F64" class="" style="fill:#32393F" data-old_color="#575F64"/><path d="m303 399v-30h-47l-10.667969 15 10.667969 15zm0 0" fill="#fd4b00" data-original="#FD4B00" class="" style="fill:#FD4B00"/><path d="m209 369h47v30h-47zm0 0" fill="#fc7419" data-original="#FC7419" class="" style="fill:#FD4B00" data-old_color="#FC7419"/></g> </svg>
