<svg id="SvgjsSvg1013" width="288" height="288" xmlns="http://www.w3.org/2000/svg" version="1.1" xmlns:xlink="http://www.w3.org/1999/xlink" xmlns:svgjs="http://svgjs.com/svgjs"><defs id="SvgjsDefs1014"></defs><g id="SvgjsG1015"><svg xmlns="http://www.w3.org/2000/svg" enable-background="new 0 0 24 24" viewBox="0 0 24 24" width="288" height="288"><path d="m23.25 11.25h-9.5c-.414 0-.75-.336-.75-.75s.336-.75.75-.75h9.5c.414 0 .75.336.75.75s-.336.75-.75.75z" fill="#ffffff" class="color000 svgShape"></path><path d="M19.5 15c-.192 0-.384-.073-.53-.22-.293-.293-.293-.768 0-1.061l3.22-3.22-3.22-3.22c-.293-.293-.293-.768 0-1.061s.768-.293 1.061 0l3.75 3.75c.293.293.293.768 0 1.061l-3.75 3.75c-.147.148-.339.221-.531.221zM8 24c-.214 0-.417-.03-.62-.093l-6.018-2.005c-.819-.286-1.362-1.049-1.362-1.902v-18c0-1.103.897-2 2-2 .214 0 .417.03.62.093l6.018 2.005c.819.286 1.362 1.049 1.362 1.902v18c0 1.103-.897 2-2 2zm-6-22.5c-.275 0-.5.225-.5.5v18c0 .213.143.411.347.482l5.99 1.996c.043.014.099.022.163.022.275 0 .5-.225.5-.5v-18c0-.213-.143-.411-.347-.482l-5.99-1.996c-.043-.014-.099-.022-.163-.022z" fill="#ffffff" class="color000 svgShape"></path><path d="M15.25 8c-.414 0-.75-.336-.75-.75v-4.5c0-.689-.561-1.25-1.25-1.25h-11.25c-.414 0-.75-.336-.75-.75s.336-.75.75-.75h11.25c1.517 0 2.75 1.233 2.75 2.75v4.5c0 .414-.336.75-.75.75zM13.25 21h-4c-.414 0-.75-.336-.75-.75s.336-.75.75-.75h4c.689 0 1.25-.561 1.25-1.25v-4.5c0-.414.336-.75.75-.75s.75.336.75.75v4.5c0 1.517-1.233 2.75-2.75 2.75z" fill="#ffffff" class="color000 svgShape"></path></svg></g></svg>