<svg height="450pt" viewBox="0 -9 450 450" width="450pt" xmlns="http://www.w3.org/2000/svg"><path d="m305 397 .46875.589844c-23.199219 18.421875-52.546875 29.410156-84.46875 29.410156-37.558594 0-71.558594-15.230469-96.160156-39.839844l.160156-.160156 100-110zm0 0" fill="#a8cfff"/><path d="m224.164062 291.332031 74.304688 111.457031c2.390625-1.660156 4.726562-3.394531 7-5.199218l-.46875-.589844-80-120-100 110-.160156.160156c2.128906 2.128906 4.335937 4.1875 6.601562 6.171875zm0 0" fill="#8ab7e2"/><path d="m225 277-100 110-.160156.160156c-23.738282-23.730468-38.738282-56.199218-39.78125-92.160156zm0 0" fill="#fcd884"/><path d="m94.558594 302.832031 121.121094-15.578125 9.320312-10.253906-139.941406 18c1.042968 35.960938 16.042968 68.429688 39.78125 92.160156l.160156-.160156 1.015625-1.117188c-18.878906-22.632812-30.542969-51.496093-31.457031-83.050781zm0 0" fill="#eabf6a"/><path d="m225 277-139.941406 18c-.039063-1.328125-.058594-2.660156-.058594-4 0-75.109375 60.890625-136 136-136s136 60.890625 136 136c0 1.339844-.019531 2.671875-.058594 4-1.203125 41.558594-21.050781 78.449219-51.472656 102.589844l-.46875-.589844zm0 0" fill="#ff7979"/><path d="m229 164.667969c39.90625 0 75.796875 17.1875 100.675781 44.5625-24.820312-32.933594-64.261719-54.230469-108.675781-54.230469-75.109375 0-136 60.890625-136 136 0 1.339844.019531 2.671875.058594 4l8.105468-1.042969c3.5-71.992187 62.976563-129.289062 135.835938-129.289062zm0 0" fill="#d65b5b"/><path d="m233 286.664062-1.433594.1875 73.433594 110.148438.46875.589844c.324219-.253906.640625-.523438.960938-.78125zm0 0" fill="#d65b5b"/><path d="m445 208.820312c0 45.988282-34.53125 84.730469-80 86.179688h-8.058594c.039063-1.328125.058594-2.660156.058594-4 0-75.109375-60.890625-136-136-136s-136 60.890625-136 136c0 1.339844.019531 2.671875.058594 4h-20.058594c-35.539062-10.058594-60-47.28125-60-86.179688 0-41.101562 29.089844-75.378906 67.738281-83.230468-.019531-.558594-.046875-1.121094-.046875-1.691406 0-37.527344 30.308594-67.9375 67.6875-67.9375 9.769532 0 19.042969 2.089843 27.421875 5.820312 16.589844-33.640625 51.121094-56.78125 91.050781-56.78125 56.070313 0 101.527344 45.628906 101.527344 101.910156 0 5.800782-.5 11.488282-1.429687 17.019532.480469 0 .949219-.03125 1.429687-.03125 46.742188 0 84.621094 38.023437 84.621094 84.921874zm0 0" fill="#d8f2f1"/><path d="m17.667969 220.484375c0-41.097656 29.089843-75.378906 67.738281-83.226563-.019531-.5625-.050781-1.121093-.050781-1.691406 0-37.53125 30.3125-67.9375 67.691406-67.9375 9.769531 0 19.039063 2.089844 27.421875 5.816406 16.589844-33.636718 51.117188-56.777343 91.046875-56.777343 23.367187 0 44.886719 7.929687 62.046875 21.246093-18.554688-20.230468-45.160156-32.914062-74.710938-32.914062-39.929687 0-74.460937 23.140625-91.050781 56.78125-8.378906-3.730469-17.652343-5.820312-27.421875-5.820312-37.378906 0-67.6875 30.410156-67.6875 67.9375 0 .570312.027344 1.132812.046875 1.691406-38.648437 7.851562-67.738281 42.128906-67.738281 83.230468 0 29.414063 13.992188 57.859376 36.179688 74.335938-14.707032-16.625-23.511719-39.339844-23.511719-62.671875zm0 0" fill="#c6dfe0"/><path d="m215 107h20v20h-20zm0 0"/><path d="m185 107h20v20h-20zm0 0"/><path d="m155 107h20v20h-20zm0 0"/><path d="m314.992188 120c-2.398438 0-4.515626-1.730469-4.925782-4.179688-3.894531-23.367187-14.457031-41.539062-31.394531-54.011718-12.742187-9.378906-24.546875-11.882813-24.664063-11.90625-2.699218-.554688-4.449218-3.191406-3.902343-5.894532.550781-2.703124 3.171875-4.453124 5.875-3.910156.554687.109375 13.742187 2.835938 28.210937 13.359375 13.300782 9.671875 30.296875 28.058594 35.742188 60.722657.453125 2.722656-1.386719 5.296874-4.109375 5.753906-.28125.046875-.558594.066406-.832031.066406zm0 0"/><path d="m365 300h-8.058594c-2.761718 0-5-2.238281-5-5s2.238282-5 5-5h7.976563c42.109375-1.386719 75.082031-37.027344 75.082031-81.179688 0-44.066406-35.71875-79.921874-79.621094-79.921874-.183594 0-.371094.007812-.554687.015624-.289063.007813-.582031.015626-.875.015626-1.46875 0-2.867188-.648438-3.816407-1.769532-.949218-1.125-1.355468-2.605468-1.113281-4.058594.902344-5.371093 1.359375-10.816406 1.359375-16.191406 0-53.4375-43.304687-96.910156-96.527344-96.910156-36.972656 0-70.140624 20.6875-86.566406 53.992188-1.1875 2.40625-4.066406 3.449218-6.519531 2.355468-8.03125-3.574218-16.570313-5.386718-25.386719-5.386718-34.566406 0-62.6875 28.234374-62.6875 62.9375 0 .359374.015625.714843.027344 1.070312l.019531.441406c.085938 2.445313-1.605469 4.59375-4.003906 5.078125-36.929687 7.503907-63.734375 40.445313-63.734375 78.332031 0 37.648438 23.386719 71.667969 55.707031 81.179688h19.351563c2.761718 0 5 2.238281 5 5s-2.238282 5-5 5h-20.058594c-.460938 0-.917969-.0625-1.363281-.191406-36.871094-10.433594-63.636719-48.703125-63.636719-90.988282 0-41.234374 28.242188-77.269531 67.726562-87.214843 1.210938-39.164063 33.339844-70.644531 72.652344-70.644531 8.644532 0 17.0625 1.503906 25.089844 4.472656 8.664062-15.800782 21.179688-29.175782 36.417969-38.875 17.019531-10.832032 36.71875-16.558594 56.964843-16.558594 58.738282 0 106.527344 47.960938 106.527344 106.910156 0 4.011719-.230468 8.0625-.6875 12.09375 47.421875 2.261719 85.308594 41.683594 85.308594 89.816406 0 49.609376-37.265625 89.660157-84.839844 91.175782-.054687.003906-.105468.003906-.160156.003906zm0 0"/><path d="m221 432c-37.664062 0-73.070312-14.667969-99.695312-41.304688-25.550782-25.542968-40.199219-59.476562-41.242188-95.550781-.042969-1.375-.0625-2.753906-.0625-4.144531 0-77.746094 63.253906-141 141-141s141 63.253906 141 141c0 1.390625-.019531 2.769531-.0625 4.148438-1.203125 41.632812-20.652344 80.402343-53.359375 106.359374-25.125 19.945313-55.410156 30.492188-87.578125 30.492188zm0-272c-72.234375 0-131 58.765625-131 131 0 1.289062.019531 2.570312.058594 3.851562.96875 33.515626 14.578125 65.042969 38.316406 88.773438 24.738281 24.746094 57.632812 38.375 92.625 38.375 29.886719 0 58.019531-9.796875 81.359375-28.324219 30.394531-24.121093 48.464844-60.136719 49.582031-98.820312.039063-1.285157.058594-2.566407.058594-3.855469 0-72.234375-58.765625-131-131-131zm0 0"/><path d="m305.003906 402c-1.613281 0-3.199218-.78125-4.164062-2.226562l-78.277344-117.417969-136.863281 17.605469c-2.734375.355468-5.246094-1.582032-5.597657-4.324219-.355468-2.738281 1.582032-5.242188 4.320313-5.597657l139.941406-18c1.882813-.238281 3.742188.605469 4.796875 2.1875l80 120c1.53125 2.296876.910156 5.402344-1.386718 6.933594-.851563.566406-1.816407.839844-2.769532.839844zm0 0"/><path d="m124.996094 392c-1.199219 0-2.402344-.429688-3.359375-1.300781-2.042969-1.855469-2.195313-5.019531-.335938-7.0625l100-110c1.855469-2.042969 5.019531-2.191407 7.0625-.335938s2.195313 5.019531.335938 7.0625l-100 110c-.984375 1.085938-2.339844 1.636719-3.703125 1.636719zm0 0"/></svg>